# xmcd
#
# Track frame offsets:
#	150
#	16582
#	38337
#	59897
#	73547
#	97061
#	116929
#	133683
#	146270
#	160959
#	179416
#	205376
#	227846
#	246965
#	270662
#	310027
#
# Disc length: 4416 seconds
#
# Revision: 5
# Processed by: cddbd v1.5.2PL0 Copyright (c) Steve Scherf et al.
# Submitted via: EasyCDDAExtractor 15.2.5.1
#
DISCID=e6113e10
DTITLE=Various Artist - Cannot Buy My Soul - The Songs of Kev Carmody [CD1
DTITLE=)
DYEAR=2007
DGENRE=Country
TTITLE0=Dan Kelly - I've Been Moved
TTITLE1=John Butler Trio - Thou Shalt Not Steal
TTITLE2=Bernard Fanning - Elly
TTITLE3=The Last Kinection - The Young Dancer Is Dead
TTITLE4=The Waifs - From Little Things Big Things Grow
TTITLE5=The Drones - River of Tears
TTITLE6=Troy Cassar-Daley - On the Wire
TTITLE7=Archie Roach - Cannot Buy My Soul
TTITLE8=Sara Storer - Moonstruck
TTITLE9=Dan Sultan and Scott Wilson - This Land Is Mine
TTITLE10=Tex Perkins - Darkside
TTITLE11=Clare Bowditch - Blood Red Rose
TTITLE12=The Herd - Comrade Jesus Christ
TTITLE13=Steve Kilbey - Images of London
TTITLE14=Augie Marsh/Paul Kelly/Missy Higgins - Droving Woman
TTITLE15=The Pigram Brothers - Eulogy for a Black Man
EXTD=
EXTT0=
EXTT1=
EXTT2=
EXTT3=
EXTT4=
EXTT5=
EXTT6=
EXTT7=
EXTT8=
EXTT9=
EXTT10=
EXTT11=
EXTT12=
EXTT13=
EXTT14=
EXTT15=
PLAYORDER=
